<svg width="1500" height="1500" viewBox="0 0 1500 1500" fill="none" xmlns="http://www.w3.org/2000/svg">
<g clip-path="url(#clip0_1_2)">
<path d="M1500 0H0V1500H1500V0Z" fill="white"/>
<g clip-path="url(#clip1_1_2)">
<g clip-path="url(#clip2_1_2)">
<g clip-path="url(#clip3_1_2)">
<path d="M-0.224487 1500V0H1500.22V1500H-0.224487ZM1469.67 1469.45V30.5484H30.3331V1469.45H1469.67Z" fill="black"/>
<g clip-path="url(#clip4_1_2)">
<g clip-path="url(#clip5_1_2)">
<g clip-path="url(#clip6_1_2)">
<g clip-path="url(#clip7_1_2)">
<g clip-path="url(#clip8_1_2)">
<g clip-path="url(#clip9_1_2)">
<g clip-path="url(#clip10_1_2)">
<path d="M435.649 135.076C521.962 135.076 587.767 149.576 633.064 178.576C678.222 207.682 700.802 250.502 700.802 307.037C700.802 367.237 678.568 412.255 634.099 442.093C589.493 471.931 526.45 486.85 444.971 486.85H403.541V677.657H272V135.076H435.649ZM437.721 412.255C482.603 412.255 515.057 404.403 535.081 388.699C555.106 372.995 565.118 346.036 565.118 307.822C565.118 273.273 555.106 248.146 535.081 232.442C515.057 216.738 482.948 208.886 438.756 208.886H403.541V412.255H437.721ZM1032.24 124.083C1071.6 124.083 1106.82 129.422 1137.89 140.101C1168.96 150.885 1198.31 166.484 1225.93 186.9L1159.64 238.724C1138.23 224.59 1118.21 214.487 1099.57 208.414C1080.92 202.447 1059.86 199.463 1036.39 199.463C990.813 199.463 955.045 214.906 929.082 245.791C903.257 276.675 890.345 330.07 890.345 405.974C890.345 459.368 894.971 501.089 904.224 531.136C913.615 561.288 927.425 582.384 945.654 594.424C964.021 606.464 988.051 612.484 1017.74 612.484C1048.81 612.484 1077.13 605.941 1102.67 592.854V446.019H1021.89L1008.42 371.424H1228V636.826C1198.31 653.053 1165.3 665.721 1128.98 674.83C1092.8 684.043 1056.07 688.65 1018.78 688.65C929.703 688.65 863.07 665.721 818.878 619.865C774.686 574.113 752.589 502.816 752.589 405.974C752.589 343.157 764.811 290.652 789.255 248.46C813.837 206.373 847.188 175.122 889.309 154.706C931.429 134.291 979.074 124.083 1032.24 124.083Z" fill="black"/>
</g>
</g>
<g clip-path="url(#clip11_1_2)">
<g clip-path="url(#clip12_1_2)">
<path d="M545.143 821.93C583.585 821.93 617.981 827.145 648.33 837.576C678.679 848.108 707.342 863.345 734.32 883.285L669.575 933.902C648.667 920.097 629.109 910.23 610.899 904.299C592.69 898.47 572.12 895.556 549.189 895.556C504.677 895.556 469.809 910.639 444.586 940.805C419.227 970.971 406.548 1023.12 406.548 1097.26C406.548 1149.41 411.134 1190.16 420.306 1219.51C429.344 1248.96 442.832 1269.56 460.772 1281.32C478.577 1293.08 501.979 1298.96 530.98 1298.96C561.329 1298.96 588.981 1292.57 613.934 1279.79V1136.37H535.026L521.875 1063.51H736.343V1322.74C707.342 1338.59 675.172 1350.96 639.832 1359.86C604.357 1368.85 568.411 1373.35 531.991 1373.35C444.99 1373.35 379.908 1350.96 336.745 1306.17C293.582 1261.48 272 1191.85 272 1097.26C272 1035.9 284.005 984.622 308.014 943.412C331.889 902.305 364.396 871.781 405.536 851.841C446.676 831.9 493.212 821.93 545.143 821.93ZM1018.59 821.93C1059.06 821.93 1094.8 827.299 1125.82 838.036C1156.85 848.773 1185.51 864.878 1211.81 886.352L1152.13 938.504C1131.22 924.188 1110.78 913.451 1090.82 906.293C1070.99 899.135 1049.95 895.556 1027.7 895.556C1002.07 895.556 981.834 901.538 966.997 913.502C952.159 925.568 944.741 941.316 944.741 960.745C944.741 980.174 952.497 996.024 968.008 1008.29C983.52 1020.57 1013.87 1033.35 1059.06 1046.64C1117.06 1064.54 1159.68 1085.5 1186.93 1109.53C1214.31 1133.56 1228 1167.56 1228 1211.53C1228 1241.7 1218.9 1269.15 1200.69 1293.9C1182.48 1318.75 1156.31 1338.33 1122.18 1352.65C1088.19 1366.96 1048.6 1374.12 1003.42 1374.12C956.88 1374.12 916.415 1367.83 882.019 1355.25C847.623 1342.78 816.262 1325.04 787.936 1302.03L852.681 1248.34C876.961 1264.71 900.229 1277.23 922.485 1285.92C944.741 1294.62 969.02 1298.96 995.323 1298.96C1026.35 1298.96 1050.42 1291.65 1067.55 1277.03C1084.82 1262.51 1093.45 1242.72 1093.45 1217.67C1093.45 1195.68 1085.83 1177.63 1070.59 1163.52C1055.48 1149.51 1027.36 1136.63 986.218 1124.87C924.171 1105.95 879.456 1084.22 852.074 1059.68C824.828 1035.14 811.204 1004.46 811.204 967.647C811.204 939.526 820.107 914.473 837.911 892.488C855.851 870.503 880.67 853.272 912.368 840.797C944.066 828.219 979.474 821.93 1018.59 821.93Z" fill="black"/>
</g>
</g>
</g>
</g>
</g>
</g>
</g>
</g>
</g>
</g>
</g>
<defs>
<clipPath id="clip0_1_2">
<rect width="1500" height="1500" fill="white"/>
</clipPath>
<clipPath id="clip1_1_2">
<rect width="2402" height="1500" fill="white" transform="translate(-451)"/>
</clipPath>
<clipPath id="clip2_1_2">
<rect width="2400.72" height="1500" fill="white" transform="translate(-450.359)"/>
</clipPath>
<clipPath id="clip3_1_2">
<rect width="2400.72" height="1500" fill="white" transform="translate(-450.359)"/>
</clipPath>
<clipPath id="clip4_1_2">
<rect width="956" height="1250.04" fill="white" transform="translate(272 124.083)"/>
</clipPath>
<clipPath id="clip5_1_2">
<rect width="956" height="1250.04" fill="white" transform="translate(272 124.083)"/>
</clipPath>
<clipPath id="clip6_1_2">
<rect width="956" height="1250.04" fill="white" transform="translate(272 124.083)"/>
</clipPath>
<clipPath id="clip7_1_2">
<rect width="956" height="1250.04" fill="white" transform="translate(272 124.083)"/>
</clipPath>
<clipPath id="clip8_1_2">
<rect width="956" height="1250.04" fill="white" transform="translate(272 124.083)"/>
</clipPath>
<clipPath id="clip9_1_2">
<rect width="956" height="564.567" fill="white" transform="translate(272 124.083)"/>
</clipPath>
<clipPath id="clip10_1_2">
<rect width="956" height="564.567" fill="white" transform="translate(272 124.083)"/>
</clipPath>
<clipPath id="clip11_1_2">
<rect width="956" height="552.19" fill="white" transform="translate(272 821.93)"/>
</clipPath>
<clipPath id="clip12_1_2">
<rect width="956" height="552.19" fill="white" transform="translate(272 821.93)"/>
</clipPath>
</defs>
</svg>
